<mxfile host="app.diagrams.net" modified="2022-03-05T13:02:36.388Z" agent="5.0 (Macintosh; Intel Mac OS X 10_15_7) AppleWebKit/605.1.15 (KHTML, like Gecko) Version/15.3 Safari/605.1.15" etag="beH2UfBQU7keL6AH30Cs" version="16.6.6" type="github">
  <diagram id="FYUdUs2pMshfwl30nbKF" name="Page-1">
    <mxGraphModel dx="946" dy="1789" grid="1" gridSize="10" guides="1" tooltips="1" connect="1" arrows="1" fold="1" page="1" pageScale="1" pageWidth="827" pageHeight="1169" math="1" shadow="0">
      <root>
        <mxCell id="0" />
        <mxCell id="1" parent="0" />
        <mxCell id="Vtmff6CBGw9fi_Gm5Duo-36" style="edgeStyle=orthogonalEdgeStyle;rounded=0;orthogonalLoop=1;jettySize=auto;html=1;exitX=0.5;exitY=1;exitDx=0;exitDy=0;entryX=0.5;entryY=0;entryDx=0;entryDy=0;fontFamily=Helvetica;fontSize=16;endArrow=none;endFill=0;strokeWidth=1;" edge="1" parent="1" source="Vtmff6CBGw9fi_Gm5Duo-2" target="Vtmff6CBGw9fi_Gm5Duo-4">
          <mxGeometry relative="1" as="geometry" />
        </mxCell>
        <mxCell id="Vtmff6CBGw9fi_Gm5Duo-37" style="edgeStyle=orthogonalEdgeStyle;rounded=0;orthogonalLoop=1;jettySize=auto;html=1;exitX=0.5;exitY=1;exitDx=0;exitDy=0;entryX=0.5;entryY=0;entryDx=0;entryDy=0;fontFamily=Helvetica;fontSize=16;endArrow=none;endFill=0;strokeWidth=1;" edge="1" parent="1" source="Vtmff6CBGw9fi_Gm5Duo-2" target="Vtmff6CBGw9fi_Gm5Duo-3">
          <mxGeometry relative="1" as="geometry" />
        </mxCell>
        <mxCell id="Vtmff6CBGw9fi_Gm5Duo-2" value="$$(0,0,0\textbf{ | }5,3)$$" style="text;html=1;align=center;verticalAlign=middle;whiteSpace=wrap;rounded=0;shadow=1;glass=0;labelBackgroundColor=none;labelBorderColor=none;fontFamily=Helvetica;fontSize=16;sketch=0;fillColor=none;gradientColor=none;strokeColor=none;" vertex="1" parent="1">
          <mxGeometry x="414" y="-1150" width="120" height="40" as="geometry" />
        </mxCell>
        <mxCell id="Vtmff6CBGw9fi_Gm5Duo-42" style="edgeStyle=orthogonalEdgeStyle;rounded=0;orthogonalLoop=1;jettySize=auto;html=1;exitX=0.5;exitY=1;exitDx=0;exitDy=0;entryX=0.5;entryY=0;entryDx=0;entryDy=0;fontFamily=Helvetica;fontSize=16;endArrow=none;endFill=0;strokeWidth=1;" edge="1" parent="1" source="Vtmff6CBGw9fi_Gm5Duo-3" target="Vtmff6CBGw9fi_Gm5Duo-5">
          <mxGeometry relative="1" as="geometry" />
        </mxCell>
        <mxCell id="Vtmff6CBGw9fi_Gm5Duo-43" style="edgeStyle=orthogonalEdgeStyle;rounded=0;orthogonalLoop=1;jettySize=auto;html=1;exitX=0.5;exitY=1;exitDx=0;exitDy=0;entryX=0.5;entryY=0;entryDx=0;entryDy=0;fontFamily=Helvetica;fontSize=16;endArrow=none;endFill=0;strokeWidth=1;" edge="1" parent="1" source="Vtmff6CBGw9fi_Gm5Duo-3" target="Vtmff6CBGw9fi_Gm5Duo-6">
          <mxGeometry relative="1" as="geometry" />
        </mxCell>
        <mxCell id="Vtmff6CBGw9fi_Gm5Duo-3" value="$$(0,0,0\textbf{ | }5,2)$$" style="text;html=1;strokeColor=none;fillColor=none;align=center;verticalAlign=middle;whiteSpace=wrap;rounded=0;shadow=1;glass=0;labelBackgroundColor=none;labelBorderColor=none;fontFamily=Helvetica;fontSize=16;" vertex="1" parent="1">
          <mxGeometry x="164" y="-1070" width="120" height="40" as="geometry" />
        </mxCell>
        <mxCell id="Vtmff6CBGw9fi_Gm5Duo-34" style="edgeStyle=orthogonalEdgeStyle;rounded=0;orthogonalLoop=1;jettySize=auto;html=1;exitX=0.5;exitY=1;exitDx=0;exitDy=0;entryX=0.5;entryY=0;entryDx=0;entryDy=0;fontFamily=Helvetica;fontSize=16;endArrow=none;endFill=0;strokeWidth=1;" edge="1" parent="1" source="Vtmff6CBGw9fi_Gm5Duo-4" target="Vtmff6CBGw9fi_Gm5Duo-21">
          <mxGeometry relative="1" as="geometry" />
        </mxCell>
        <mxCell id="Vtmff6CBGw9fi_Gm5Duo-35" style="edgeStyle=orthogonalEdgeStyle;rounded=0;orthogonalLoop=1;jettySize=auto;html=1;exitX=0.5;exitY=1;exitDx=0;exitDy=0;entryX=0.5;entryY=0;entryDx=0;entryDy=0;fontFamily=Helvetica;fontSize=16;endArrow=none;endFill=0;strokeWidth=1;" edge="1" parent="1" source="Vtmff6CBGw9fi_Gm5Duo-4" target="Vtmff6CBGw9fi_Gm5Duo-22">
          <mxGeometry relative="1" as="geometry" />
        </mxCell>
        <mxCell id="Vtmff6CBGw9fi_Gm5Duo-4" value="$$(1,1,1\textbf{ | }2,3)$$" style="text;html=1;strokeColor=none;fillColor=none;align=center;verticalAlign=middle;whiteSpace=wrap;rounded=0;shadow=1;glass=0;labelBackgroundColor=none;labelBorderColor=none;fontFamily=Helvetica;fontSize=16;" vertex="1" parent="1">
          <mxGeometry x="664" y="-1070" width="120" height="40" as="geometry" />
        </mxCell>
        <mxCell id="Vtmff6CBGw9fi_Gm5Duo-40" style="edgeStyle=orthogonalEdgeStyle;rounded=0;orthogonalLoop=1;jettySize=auto;html=1;exitX=0.5;exitY=1;exitDx=0;exitDy=0;entryX=0.5;entryY=0;entryDx=0;entryDy=0;fontFamily=Helvetica;fontSize=16;endArrow=none;endFill=0;strokeWidth=1;" edge="1" parent="1" source="Vtmff6CBGw9fi_Gm5Duo-5" target="Vtmff6CBGw9fi_Gm5Duo-8">
          <mxGeometry relative="1" as="geometry" />
        </mxCell>
        <mxCell id="Vtmff6CBGw9fi_Gm5Duo-41" style="edgeStyle=orthogonalEdgeStyle;rounded=0;orthogonalLoop=1;jettySize=auto;html=1;exitX=0.5;exitY=1;exitDx=0;exitDy=0;entryX=0.5;entryY=0;entryDx=0;entryDy=0;fontFamily=Helvetica;fontSize=16;endArrow=none;endFill=0;strokeWidth=1;" edge="1" parent="1" source="Vtmff6CBGw9fi_Gm5Duo-5" target="Vtmff6CBGw9fi_Gm5Duo-7">
          <mxGeometry relative="1" as="geometry" />
        </mxCell>
        <mxCell id="Vtmff6CBGw9fi_Gm5Duo-5" value="$$(0,0,0\textbf{ | }5,1)$$" style="text;html=1;strokeColor=none;fillColor=none;align=center;verticalAlign=middle;whiteSpace=wrap;rounded=0;shadow=1;glass=0;labelBackgroundColor=none;labelBorderColor=none;fontFamily=Helvetica;fontSize=16;" vertex="1" parent="1">
          <mxGeometry x="34" y="-990" width="120" height="40" as="geometry" />
        </mxCell>
        <mxCell id="Vtmff6CBGw9fi_Gm5Duo-38" style="edgeStyle=orthogonalEdgeStyle;rounded=0;orthogonalLoop=1;jettySize=auto;html=1;exitX=0.5;exitY=1;exitDx=0;exitDy=0;entryX=0.5;entryY=0;entryDx=0;entryDy=0;fontFamily=Helvetica;fontSize=16;endArrow=none;endFill=0;strokeWidth=1;" edge="1" parent="1" source="Vtmff6CBGw9fi_Gm5Duo-6" target="Vtmff6CBGw9fi_Gm5Duo-9">
          <mxGeometry relative="1" as="geometry" />
        </mxCell>
        <mxCell id="Vtmff6CBGw9fi_Gm5Duo-39" style="edgeStyle=orthogonalEdgeStyle;rounded=0;orthogonalLoop=1;jettySize=auto;html=1;exitX=0.5;exitY=1;exitDx=0;exitDy=0;entryX=0.5;entryY=0;entryDx=0;entryDy=0;fontFamily=Helvetica;fontSize=16;endArrow=none;endFill=0;strokeWidth=1;" edge="1" parent="1" source="Vtmff6CBGw9fi_Gm5Duo-6" target="Vtmff6CBGw9fi_Gm5Duo-10">
          <mxGeometry relative="1" as="geometry" />
        </mxCell>
        <mxCell id="Vtmff6CBGw9fi_Gm5Duo-6" value="$$(1,1,0\textbf{ | }3,2)$$" style="text;html=1;strokeColor=none;fillColor=none;align=center;verticalAlign=middle;whiteSpace=wrap;rounded=0;shadow=1;glass=0;labelBackgroundColor=none;labelBorderColor=none;fontFamily=Helvetica;fontSize=16;" vertex="1" parent="1">
          <mxGeometry x="288" y="-990" width="120" height="40" as="geometry" />
        </mxCell>
        <mxCell id="Vtmff6CBGw9fi_Gm5Duo-7" value="$$\emptyset$$" style="text;html=1;strokeColor=none;fillColor=none;align=center;verticalAlign=middle;whiteSpace=wrap;rounded=0;shadow=1;glass=0;labelBackgroundColor=none;labelBorderColor=none;fontFamily=Helvetica;fontSize=16;" vertex="1" parent="1">
          <mxGeometry x="14" y="-910" width="60" height="40" as="geometry" />
        </mxCell>
        <mxCell id="Vtmff6CBGw9fi_Gm5Duo-8" value="$$(5,0,0)$$" style="text;html=1;strokeColor=none;fillColor=none;align=center;verticalAlign=middle;whiteSpace=wrap;rounded=0;shadow=1;glass=0;labelBackgroundColor=none;labelBorderColor=none;fontFamily=Helvetica;fontSize=16;" vertex="1" parent="1">
          <mxGeometry x="104" y="-910" width="80" height="40" as="geometry" />
        </mxCell>
        <mxCell id="Vtmff6CBGw9fi_Gm5Duo-23" style="edgeStyle=orthogonalEdgeStyle;rounded=0;orthogonalLoop=1;jettySize=auto;html=1;exitX=0.5;exitY=1;exitDx=0;exitDy=0;entryX=0.5;entryY=0;entryDx=0;entryDy=0;fontFamily=Helvetica;fontSize=16;endArrow=none;endFill=0;strokeWidth=1;" edge="1" parent="1" source="Vtmff6CBGw9fi_Gm5Duo-9" target="Vtmff6CBGw9fi_Gm5Duo-11">
          <mxGeometry relative="1" as="geometry" />
        </mxCell>
        <mxCell id="Vtmff6CBGw9fi_Gm5Duo-24" style="edgeStyle=orthogonalEdgeStyle;rounded=0;orthogonalLoop=1;jettySize=auto;html=1;exitX=0.5;exitY=1;exitDx=0;exitDy=0;entryX=0.5;entryY=0;entryDx=0;entryDy=0;fontFamily=Helvetica;fontSize=16;endArrow=none;endFill=0;strokeWidth=1;" edge="1" parent="1" source="Vtmff6CBGw9fi_Gm5Duo-9" target="Vtmff6CBGw9fi_Gm5Duo-12">
          <mxGeometry relative="1" as="geometry" />
        </mxCell>
        <mxCell id="Vtmff6CBGw9fi_Gm5Duo-9" value="$$(1,1,0\textbf{ | }3,1)$$" style="text;html=1;strokeColor=none;fillColor=none;align=center;verticalAlign=middle;whiteSpace=wrap;rounded=0;shadow=1;glass=0;labelBackgroundColor=none;labelBorderColor=none;fontFamily=Helvetica;fontSize=16;" vertex="1" parent="1">
          <mxGeometry x="184" y="-910" width="120" height="40" as="geometry" />
        </mxCell>
        <mxCell id="Vtmff6CBGw9fi_Gm5Duo-28" style="edgeStyle=orthogonalEdgeStyle;rounded=0;orthogonalLoop=1;jettySize=auto;html=1;exitX=0.5;exitY=1;exitDx=0;exitDy=0;entryX=0.5;entryY=0;entryDx=0;entryDy=0;fontFamily=Helvetica;fontSize=16;endArrow=none;endFill=0;strokeWidth=1;" edge="1" parent="1" source="Vtmff6CBGw9fi_Gm5Duo-10" target="Vtmff6CBGw9fi_Gm5Duo-13">
          <mxGeometry relative="1" as="geometry" />
        </mxCell>
        <mxCell id="Vtmff6CBGw9fi_Gm5Duo-29" style="edgeStyle=orthogonalEdgeStyle;rounded=0;orthogonalLoop=1;jettySize=auto;html=1;exitX=0.5;exitY=1;exitDx=0;exitDy=0;entryX=0.5;entryY=0;entryDx=0;entryDy=0;fontFamily=Helvetica;fontSize=16;endArrow=none;endFill=0;strokeWidth=1;" edge="1" parent="1" source="Vtmff6CBGw9fi_Gm5Duo-10" target="Vtmff6CBGw9fi_Gm5Duo-16">
          <mxGeometry relative="1" as="geometry" />
        </mxCell>
        <mxCell id="Vtmff6CBGw9fi_Gm5Duo-10" value="$$(2,2,0\textbf{ | }1,2)$$" style="text;html=1;strokeColor=none;fillColor=none;align=center;verticalAlign=middle;whiteSpace=wrap;rounded=0;shadow=1;glass=0;labelBackgroundColor=none;labelBorderColor=none;fontFamily=Helvetica;fontSize=16;" vertex="1" parent="1">
          <mxGeometry x="384" y="-910" width="120" height="40" as="geometry" />
        </mxCell>
        <mxCell id="Vtmff6CBGw9fi_Gm5Duo-11" value="$$\emptyset$$" style="text;html=1;strokeColor=none;fillColor=none;align=center;verticalAlign=middle;whiteSpace=wrap;rounded=0;shadow=1;glass=0;labelBackgroundColor=none;labelBorderColor=none;fontFamily=Helvetica;fontSize=16;" vertex="1" parent="1">
          <mxGeometry x="164" y="-830" width="60" height="40" as="geometry" />
        </mxCell>
        <mxCell id="Vtmff6CBGw9fi_Gm5Duo-12" value="$$(4,1,0)$$" style="text;html=1;strokeColor=none;fillColor=none;align=center;verticalAlign=middle;whiteSpace=wrap;rounded=0;shadow=1;glass=0;labelBackgroundColor=none;labelBorderColor=none;fontFamily=Helvetica;fontSize=16;" vertex="1" parent="1">
          <mxGeometry x="254" y="-830" width="80" height="40" as="geometry" />
        </mxCell>
        <mxCell id="Vtmff6CBGw9fi_Gm5Duo-25" style="edgeStyle=orthogonalEdgeStyle;rounded=0;orthogonalLoop=1;jettySize=auto;html=1;exitX=0.5;exitY=1;exitDx=0;exitDy=0;entryX=0.5;entryY=0;entryDx=0;entryDy=0;fontFamily=Helvetica;fontSize=16;endArrow=none;endFill=0;strokeWidth=1;" edge="1" parent="1" source="Vtmff6CBGw9fi_Gm5Duo-13" target="Vtmff6CBGw9fi_Gm5Duo-14">
          <mxGeometry relative="1" as="geometry" />
        </mxCell>
        <mxCell id="Vtmff6CBGw9fi_Gm5Duo-27" style="edgeStyle=orthogonalEdgeStyle;rounded=0;orthogonalLoop=1;jettySize=auto;html=1;exitX=0.5;exitY=1;exitDx=0;exitDy=0;entryX=0.5;entryY=0;entryDx=0;entryDy=0;fontFamily=Helvetica;fontSize=16;endArrow=none;endFill=0;strokeWidth=1;" edge="1" parent="1" source="Vtmff6CBGw9fi_Gm5Duo-13" target="Vtmff6CBGw9fi_Gm5Duo-15">
          <mxGeometry relative="1" as="geometry" />
        </mxCell>
        <mxCell id="Vtmff6CBGw9fi_Gm5Duo-13" value="$$(2,2,0\textbf{ | }1,1)$$" style="text;html=1;strokeColor=none;fillColor=none;align=center;verticalAlign=middle;whiteSpace=wrap;rounded=0;shadow=1;glass=0;labelBackgroundColor=none;labelBorderColor=none;fontFamily=Helvetica;fontSize=16;" vertex="1" parent="1">
          <mxGeometry x="334" y="-830" width="120" height="40" as="geometry" />
        </mxCell>
        <mxCell id="Vtmff6CBGw9fi_Gm5Duo-14" value="$$\emptyset$$" style="text;html=1;strokeColor=none;fillColor=none;align=center;verticalAlign=middle;whiteSpace=wrap;rounded=0;shadow=1;glass=0;labelBackgroundColor=none;labelBorderColor=none;fontFamily=Helvetica;fontSize=16;" vertex="1" parent="1">
          <mxGeometry x="314" y="-750" width="60" height="40" as="geometry" />
        </mxCell>
        <mxCell id="Vtmff6CBGw9fi_Gm5Duo-15" value="$$(3,2,0)$$" style="text;html=1;strokeColor=none;fillColor=none;align=center;verticalAlign=middle;whiteSpace=wrap;rounded=0;shadow=1;glass=0;labelBackgroundColor=none;labelBorderColor=none;fontFamily=Helvetica;fontSize=16;" vertex="1" parent="1">
          <mxGeometry x="404" y="-750" width="80" height="40" as="geometry" />
        </mxCell>
        <mxCell id="Vtmff6CBGw9fi_Gm5Duo-16" value="$$\emptyset$$" style="text;html=1;strokeColor=none;fillColor=none;align=center;verticalAlign=middle;whiteSpace=wrap;rounded=0;shadow=1;glass=0;labelBackgroundColor=none;labelBorderColor=none;fontFamily=Helvetica;fontSize=16;" vertex="1" parent="1">
          <mxGeometry x="464" y="-830" width="60" height="40" as="geometry" />
        </mxCell>
        <mxCell id="Vtmff6CBGw9fi_Gm5Duo-17" value="$$\emptyset$$" style="text;html=1;strokeColor=none;fillColor=none;align=center;verticalAlign=middle;whiteSpace=wrap;rounded=0;shadow=1;glass=0;labelBackgroundColor=none;labelBorderColor=none;fontFamily=Helvetica;fontSize=16;" vertex="1" parent="1">
          <mxGeometry x="524" y="-830" width="60" height="40" as="geometry" />
        </mxCell>
        <mxCell id="Vtmff6CBGw9fi_Gm5Duo-18" value="$$(3,1,1)$$" style="text;html=1;strokeColor=none;fillColor=none;align=center;verticalAlign=middle;whiteSpace=wrap;rounded=0;shadow=1;glass=0;labelBackgroundColor=none;labelBorderColor=none;fontFamily=Helvetica;fontSize=16;" vertex="1" parent="1">
          <mxGeometry x="614" y="-830" width="80" height="40" as="geometry" />
        </mxCell>
        <mxCell id="Vtmff6CBGw9fi_Gm5Duo-30" style="edgeStyle=orthogonalEdgeStyle;rounded=0;orthogonalLoop=1;jettySize=auto;html=1;exitX=0.5;exitY=1;exitDx=0;exitDy=0;entryX=0.5;entryY=0;entryDx=0;entryDy=0;fontFamily=Helvetica;fontSize=16;endArrow=none;endFill=0;strokeWidth=1;" edge="1" parent="1" source="Vtmff6CBGw9fi_Gm5Duo-19" target="Vtmff6CBGw9fi_Gm5Duo-17">
          <mxGeometry relative="1" as="geometry" />
        </mxCell>
        <mxCell id="Vtmff6CBGw9fi_Gm5Duo-31" style="edgeStyle=orthogonalEdgeStyle;rounded=0;orthogonalLoop=1;jettySize=auto;html=1;exitX=0.5;exitY=1;exitDx=0;exitDy=0;entryX=0.5;entryY=0;entryDx=0;entryDy=0;fontFamily=Helvetica;fontSize=16;endArrow=none;endFill=0;strokeWidth=1;" edge="1" parent="1" source="Vtmff6CBGw9fi_Gm5Duo-19" target="Vtmff6CBGw9fi_Gm5Duo-18">
          <mxGeometry relative="1" as="geometry" />
        </mxCell>
        <mxCell id="Vtmff6CBGw9fi_Gm5Duo-19" value="$$(1,1,1\textbf{ | }2,1)$$" style="text;html=1;strokeColor=none;fillColor=none;align=center;verticalAlign=middle;whiteSpace=wrap;rounded=0;shadow=1;glass=0;labelBackgroundColor=none;labelBorderColor=none;fontFamily=Helvetica;fontSize=16;" vertex="1" parent="1">
          <mxGeometry x="544" y="-910" width="120" height="40" as="geometry" />
        </mxCell>
        <mxCell id="Vtmff6CBGw9fi_Gm5Duo-20" value="$$(2,2,1)$$" style="text;html=1;strokeColor=none;fillColor=none;align=center;verticalAlign=middle;whiteSpace=wrap;rounded=0;shadow=1;glass=0;labelBackgroundColor=none;labelBorderColor=none;fontFamily=Helvetica;fontSize=16;" vertex="1" parent="1">
          <mxGeometry x="684" y="-910" width="80" height="40" as="geometry" />
        </mxCell>
        <mxCell id="Vtmff6CBGw9fi_Gm5Duo-32" style="edgeStyle=orthogonalEdgeStyle;rounded=0;orthogonalLoop=1;jettySize=auto;html=1;exitX=0.5;exitY=1;exitDx=0;exitDy=0;entryX=0.5;entryY=0;entryDx=0;entryDy=0;fontFamily=Helvetica;fontSize=16;endArrow=none;endFill=0;strokeWidth=1;" edge="1" parent="1" source="Vtmff6CBGw9fi_Gm5Duo-21" target="Vtmff6CBGw9fi_Gm5Duo-19">
          <mxGeometry relative="1" as="geometry" />
        </mxCell>
        <mxCell id="Vtmff6CBGw9fi_Gm5Duo-33" style="edgeStyle=orthogonalEdgeStyle;rounded=0;orthogonalLoop=1;jettySize=auto;html=1;exitX=0.5;exitY=1;exitDx=0;exitDy=0;entryX=0.5;entryY=0;entryDx=0;entryDy=0;fontFamily=Helvetica;fontSize=16;endArrow=none;endFill=0;strokeWidth=1;" edge="1" parent="1" source="Vtmff6CBGw9fi_Gm5Duo-21" target="Vtmff6CBGw9fi_Gm5Duo-20">
          <mxGeometry relative="1" as="geometry" />
        </mxCell>
        <mxCell id="Vtmff6CBGw9fi_Gm5Duo-21" value="$$(1,1,1\textbf{ | }2,2)$$" style="text;html=1;strokeColor=none;fillColor=none;align=center;verticalAlign=middle;whiteSpace=wrap;rounded=0;shadow=1;glass=0;labelBackgroundColor=none;labelBorderColor=none;fontFamily=Helvetica;fontSize=16;" vertex="1" parent="1">
          <mxGeometry x="604" y="-990" width="120" height="40" as="geometry" />
        </mxCell>
        <mxCell id="Vtmff6CBGw9fi_Gm5Duo-22" value="$$\emptyset$$" style="text;html=1;strokeColor=none;fillColor=none;align=center;verticalAlign=middle;whiteSpace=wrap;rounded=0;shadow=1;glass=0;labelBackgroundColor=none;labelBorderColor=none;fontFamily=Helvetica;fontSize=16;" vertex="1" parent="1">
          <mxGeometry x="754" y="-990" width="60" height="40" as="geometry" />
        </mxCell>
      </root>
    </mxGraphModel>
  </diagram>
</mxfile>
